<svg width="1437" height="1111" xmlns="http://www.w3.org/2000/svg" xmlns:xlink="http://www.w3.org/1999/xlink" xml:space="preserve" overflow="hidden"><g transform="translate(-2609 -718)"><path d="M3298.5 1821 2808 1575.75 2808 971.249 3298.5 726 3789 971.249 3789 1575.75Z" stroke="#000000" stroke-width="13.75" stroke-miterlimit="8" fill="#2568BB" fill-rule="evenodd"/><path d="M0 0 478.292 0 488 0.0585916C487.26 201.434 485.878 400.264 485.138 601.64L2.28928 842C1.5263 561.333 0.762982 280.667 0 0Z" fill="#008080" fill-rule="evenodd" transform="matrix(-1 0 0 1 3300 972)"/><path d="M3298.25 734 3550.41 854.591 3783 974 2808 972.285 2813.5 972.284 3046 854.629 3298.25 734Z" fill="#441B62" fill-rule="evenodd"/><text fill="#FFFFFF" font-family="Aptos,Aptos_MSFontService,sans-serif" font-weight="400" font-size="321" transform="matrix(1 0 0 1 2801.56 1459)">NMsim </text><path d="M2811 1118.41C2874.52 985.454 2923.74 906.752 3005.25 884.55 3086.77 862.348 3219.51 925.491 3300.07 985.199 3380.64 1044.91 3476.37 1161.96 3561.56 1209.73 3684.26 1281.13 3723.93 1284.56 3789 1283.95" stroke="#FFFFFF" stroke-width="18.3333" stroke-miterlimit="8" fill="none" fill-rule="evenodd"/></g></svg>