<svg width="1437" height="1111" xmlns="http://www.w3.org/2000/svg" xmlns:xlink="http://www.w3.org/1999/xlink" xml:space="preserve" overflow="hidden"><g transform="translate(-913 -743)"><path d="M1602.48 1846 1112 1600.76 1112 996.241 1602.48 751 2092.97 996.241 2092.97 1600.76Z" stroke="#000000" stroke-width="13.75" stroke-miterlimit="8" fill="#2568BB" fill-rule="evenodd"/><path d="M0 0 478.292 0 488 0.0585916C487.26 201.434 485.878 400.264 485.138 601.64L2.28928 842C1.5263 561.333 0.762982 280.667 0 0Z" fill="#008080" fill-rule="evenodd" transform="matrix(-1 0 0 1 1605 997)"/><path d="M1602.75 758 1855.17 879.094 2088 999 1112 997.278 1117.5 997.277 1350.25 879.132 1602.75 758Z" fill="#441B62" fill-rule="evenodd"/><text fill="#FFFFFF" font-family="Aptos,Aptos_MSFontService,sans-serif" font-weight="400" font-size="321" transform="matrix(1 0 0 1 1106.19 1484)">NMsim </text><path d="M1116 1143C1179.45 1009.72 1228.63 930.818 1310.05 908.561 1391.48 886.304 1524.1 949.603 1604.57 1009.46 1685.05 1069.32 1780.69 1186.66 1865.79 1234.54 1988.37 1306.12 2028 1309.56 2093 1308.95" stroke="#000000" stroke-width="18.3333" stroke-miterlimit="8" fill="none" fill-rule="evenodd"/></g></svg>